<?xml version="1.0" encoding="UTF-8"?>
<svg id="Layer_2" data-name="Layer 2" xmlns="http://www.w3.org/2000/svg" viewBox="0 0 86.75 156.71">
  <defs>
    <style>
      .cls-1 {
        fill: #61a29f;
      }

      .cls-2 {
        fill: #5c8fcb;
      }

      .cls-3 {
        fill: #514a4c;
      }
    </style>
  </defs>
  <g id="Layer_1-2" data-name="Layer 1">
    <g>
      <path class="cls-1" d="M81.51,44.08l-2.91,99.04s-7.38,13.71-30.1,13.59c-11.85-.07-21.55-3.5-30.49-12.43l-2.91-100.2s35.73,9.71,66.41,0Z"/>
      <path class="cls-3" d="M86.75,38.9c0,2.89-2.35,5.24-5.24,5.24-30.68,9.71-66.41,0-66.41,0-2.89,0-5.24-2.35-5.24-5.24s2.35-5.24,5.24-5.24v-13.18c0-2.4,1.69-4.45,4.03-4.91,1.91-.38,4.44-.83,7.46-1.28-.28-.32-.42-.66-.42-1,0-2.84,9.91-5.14,22.13-5.14s22.14,2.3,22.14,5.14c0,.22-.06,.44-.18,.65,2.49,.4,4.98,.89,7.45,1.49,2.23,.54,3.8,2.56,3.8,4.86v13.37c2.89,0,5.24,2.35,5.24,5.24Z"/>
      <path class="cls-2" d="M52.87,12.33c0,1.02-2.05,1.85-4.57,1.85s-4.56-.83-4.56-1.85l.04-.23,1.66-10.64c0-.8,1.28-1.46,2.86-1.46s2.87,.66,2.87,1.46l1.66,10.64,.04,.23Z"/>
      <path class="cls-2" d="M.01,64.53c-.01,.09-.01,.17-.01,.26v-.26H.01Z"/>
      <path class="cls-2" d="M28.4,104.08h0c0,3.23-2.61,5.84-5.84,5.84h-5.46c-1.99,0-3.61,1.62-3.61,3.61v32.43H1.8v-35.55c0-.09,0-.17,.01-.26,.13-6.6,5.53-11.91,12.16-11.91h8.58c3.23,0,5.84,2.61,5.84,5.84Z"/>
    </g>
  </g>
</svg>