<?xml version="1.0" encoding="UTF-8"?>
<svg id="Layer_2" data-name="Layer 2" xmlns="http://www.w3.org/2000/svg" viewBox="0 0 560.34 435.23">
  <defs>
    <style>
      .cls-1 {
        fill: #f8b64c;
      }

      .cls-2 {
        fill: #ffd15c;
      }

      .cls-3 {
        fill: #fcc956;
      }
    </style>
  </defs>
  <g id="Layer_1-2" data-name="Layer 1">
    <path class="cls-2" d="M367.75,430.42s-116.04,13.72-241.31-63.57C.19,289.91,.39,175.55,.39,175.55c0,0-9.58-107.54,73.99-156.26C132.15-14.67,206.3,6.55,206.3,6.55c70.64,11.38,205.33,127.47,205.33,127.47,121.75,67.46,129.55,92.41,129.55,92.41,52.52,106.62-19.94,149.15-19.94,149.15-63.74,48.3-153.5,54.85-153.5,54.85Z"/>
    <g>
      <path class="cls-1" d="M210.46,77.18c-1.69-1.62-1.76-4.92,.84-6.96,1.62-1.69,4.92-1.76,6.96,.84,4.08,5.2,10.4,7.38,16.31,5.27,5.9-2.11,9.42-7.8,9.28-14.41,.28-2.32,1.54-4.99,4.85-5.06,2.32,.28,4.99,1.54,5.06,4.85,.56,10.89-6.81,21.3-16.65,24.81-9.84,3.52-21.16-.21-26.64-9.34Z"/>
      <path class="cls-1" d="M42.76,132.67c-1.69-1.62-1.76-4.92,.84-6.96,1.62-1.69,4.92-1.76,6.96,.84,4.08,5.2,10.4,7.38,16.31,5.27s9.42-7.8,9.28-14.41c.28-2.32,1.54-4.99,4.85-5.06,2.32,.28,4.99,1.54,5.06,4.85,.56,10.89-6.81,21.3-16.65,24.81s-21.16-.21-26.64-9.34Z"/>
      <path class="cls-1" d="M122.42,256.22c-1.69-1.62-1.76-4.92,.84-6.96,1.62-1.69,4.92-1.76,6.96,.84,4.08,5.2,10.4,7.38,16.31,5.27,5.9-2.11,9.42-7.8,9.28-14.41,.28-2.32,1.54-4.99,4.85-5.06,2.32,.28,4.99,1.54,5.06,4.85,.56,10.89-6.81,21.3-16.65,24.81s-22.14,.14-26.64-9.34Z"/>
      <path class="cls-1" d="M177.79,187.61c-1.69-1.62-1.76-4.92,.84-6.96,1.62-1.69,4.92-1.76,6.96,.84,4.08,5.2,10.4,7.38,16.31,5.27s9.42-7.8,9.28-14.41c.28-2.32,1.54-4.99,4.85-5.06,2.32,.28,4.99,1.54,5.06,4.85,.56,10.89-6.81,21.3-16.65,24.81-10.82,3.87-22.14,.14-26.64-9.34Z"/>
      <path class="cls-1" d="M232.29,340.13c-1.69-1.62-1.76-4.92,.84-6.96,1.62-1.69,4.92-1.76,6.96,.84,4.08,5.2,10.4,7.38,16.31,5.27,5.9-2.11,9.42-7.8,9.28-14.41,.28-2.32,1.54-4.99,4.85-5.06,2.32,.28,4.99,1.54,5.06,4.85,.56,10.89-6.81,21.3-16.65,24.81-10.82,3.87-22.14,.14-26.64-9.34Z"/>
      <path class="cls-1" d="M338.76,218.86c-1.69-1.62-1.76-4.92,.84-6.96,1.62-1.69,4.92-1.76,6.96,.84,4.08,5.2,10.4,7.38,16.31,5.27,5.9-2.11,9.42-7.8,9.28-14.41,.28-2.32,1.54-4.99,4.85-5.06,2.32,.28,4.99,1.54,5.06,4.85,.56,10.89-6.81,21.3-16.65,24.81s-21.16-.21-26.64-9.34Z"/>
      <path class="cls-1" d="M457.98,307.2c-1.69-1.62-1.76-4.92,.84-6.96,1.62-1.69,4.92-1.76,6.96,.84,4.08,5.2,10.4,7.38,16.31,5.27s9.42-7.8,9.28-14.41c.28-2.32,1.54-4.99,4.85-5.06,2.32,.28,4.99,1.54,5.06,4.85,.56,10.89-6.81,21.3-16.65,24.81s-21.16-.21-26.64-9.34Z"/>
    </g>
    <path class="cls-3" d="M126.27,370.71c125.26,77.3,241.31,63.57,241.31,63.57,0,0,89.76-6.55,153.5-54.85,0,0,60.37-36,31.4-123.29-3.23,49.98-39.14,70.57-39.14,70.57-63.74,48.3-153.5,54.85-153.5,54.85,0,0-116.04,13.72-241.31-63.57C41.84,271.06,11.11,209.91,0,169.5c.14,6.61,.21,9.91,.21,9.91,0,0-.19,114.36,126.06,191.3Z"/>
  </g>
</svg>