<?xml version="1.0" encoding="UTF-8"?>
<svg id="Layer_2" data-name="Layer 2" xmlns="http://www.w3.org/2000/svg" viewBox="0 0 200 200">
  <defs>
    <style>
      .cls-1, .cls-2 {
        fill: none;
      }

      .cls-2 {
        stroke: #000;
        stroke-miterlimit: 10;
        stroke-width: 5px;
      }
    </style>
  </defs>
  <g id="Layer_1-2" data-name="Layer 1">
    <g>
      <g>
        <g>
          <path class="cls-2" d="M96.54,62.23v35.29c-5.79,3.13-13.74,5.06-22.51,5.06-17.56,0-31.82-7.73-32.04-17.32,0-.07,0-.15,0-.23,0-.07,0-.15,0-.23,.12-17.59,14.42-31.82,32.04-31.82,8.77,0,16.73,3.53,22.51,9.24Z"/>
          <path class="cls-2" d="M101.3,172.81c-.46,.11-.95,.17-1.45,.17H48.19c-3.43,0-6.21-2.78-6.21-6.21V85.04c0,.08,0,.15,0,.23,.22,9.58,14.48,17.32,32.04,17.32,8.77,0,16.73-1.93,22.51-5.06v69.24c0,2.93,2.03,5.39,4.77,6.04Z"/>
        </g>
        <g>
          <path class="cls-2" d="M160.63,58.77c0,.08,0,.15,0,.23-.22,9.58-14.48,17.32-32.05,17.32-11.77,0-22.05-3.47-27.63-8.65-1.42-1.32-2.53-2.75-3.29-4.26h0c-.71-1.41-1.09-2.89-1.13-4.41,0-.07,0-.15,0-.23,0-.07,0-.15,0-.23,.12-17.59,14.42-31.82,32.04-31.82s31.92,14.23,32.05,31.82c0,.08,0,.15,0,.23Z"/>
          <path class="cls-2" d="M160.63,58.77v108c0,3.43-2.78,6.21-6.21,6.21h-51.67c-.5,0-.98-.06-1.45-.17-2.73-.65-4.77-3.11-4.77-6.04V58.77c0,.08,0,.15,0,.23,.04,1.52,.42,3,1.13,4.41h0c.75,1.52,1.87,2.94,3.29,4.26,5.57,5.17,15.86,8.65,27.63,8.65,17.56,0,31.82-7.73,32.05-17.32,0-.07,0-.15,0-.23Z"/>
        </g>
      </g>
      <rect class="cls-1" width="200" height="200"/>
    </g>
  </g>
</svg>