<?xml version="1.0" encoding="UTF-8"?>
<svg id="Layer_2" data-name="Layer 2" xmlns="http://www.w3.org/2000/svg" viewBox="0 0 64.09 119.99">
  <defs>
    <style>
      .cls-1 {
        fill: #c5d6b0;
      }

      .cls-2 {
        fill: #a3343e;
      }
    </style>
  </defs>
  <g id="Layer_1-2" data-name="Layer 1">
    <path class="cls-1" d="M64.09,32.05c0,.07,0,.15,0,.23-.22,9.58-14.48,17.31-32.04,17.31S.22,41.86,0,32.27c0-.07,0-.15,0-.23s0-.15,0-.23C.12,14.23,14.42,0,32.05,0s31.92,14.23,32.04,31.82c0,.07,0,.15,0,.23Z"/>
    <path class="cls-2" d="M64.09,32.05V113.77c0,3.43-2.78,6.21-6.21,6.21H6.21c-3.43,0-6.21-2.78-6.21-6.21V32.05c0,.07,0,.15,0,.23,.22,9.58,14.48,17.31,32.04,17.31s31.82-7.73,32.04-17.31c0-.07,0-.15,0-.23Z"/>
  </g>
</svg>