<?xml version="1.0" encoding="UTF-8"?>
<svg id="Layer_2" data-name="Layer 2" xmlns="http://www.w3.org/2000/svg" viewBox="0 0 200 200">
  <defs>
    <style>
      .cls-1, .cls-2 {
        fill: none;
      }

      .cls-2 {
        stroke: #000;
        stroke-miterlimit: 10;
        stroke-width: 5px;
      }
    </style>
  </defs>
  <g id="Layer_1-2" data-name="Layer 1">
    <g>
      <g>
        <path class="cls-2" d="M132.05,58.92c0,.07,0,.15,0,.23-.22,9.58-14.48,17.31-32.04,17.31s-31.82-7.73-32.04-17.31c0-.07,0-.15,0-.23s0-.15,0-.23c.12-17.59,14.42-31.82,32.04-31.82s31.92,14.23,32.04,31.82c0,.07,0,.15,0,.23Z"/>
        <path class="cls-2" d="M132.05,58.92v108c0,3.43-2.78,6.21-6.21,6.21h-51.67c-3.43,0-6.21-2.78-6.21-6.21V58.92c0,.07,0,.15,0,.23,.22,9.58,14.48,17.31,32.04,17.31s31.82-7.73,32.04-17.31c0-.07,0-.15,0-.23Z"/>
      </g>
      <rect class="cls-1" width="200" height="200"/>
    </g>
  </g>
</svg>